<?xml version="1.0" encoding="utf-8"?>
<!-- Generator: Adobe Illustrator 19.0.0, SVG Export Plug-In . SVG Version: 6.00 Build 0)  -->
<svg version="1.1" id="Layer_1" xmlns="http://www.w3.org/2000/svg" xmlns:xlink="http://www.w3.org/1999/xlink" x="0px" y="0px"
	 viewBox="0 0 898 381.9" style="enable-background:new 0 0 898 381.9;" xml:space="preserve">
<style type="text/css">
	.st0{fill:#00AA35;}
	.st1{fill:none;stroke:#00AA35;stroke-miterlimit:10;}
	.st2{fill:#F7931E;}
	.st3{fill:#009CD4;}
	.st4{fill:#3FA9F5;stroke:#3FA9F5;stroke-width:3;stroke-miterlimit:10;}
</style>
<g id="XMLID_1_">
	<g>
		<path class="st0" d="M719.5,274.7c-31.4,3.6-36.7-3.9-50.4-18.5c-14.1-15.1-34-32.4-52.6-23.4c17.3,4.9,32,18.4,38.4,35.3
			c-31.4-16.1-63.5-30.9-97-41.9c-112.6-37.2-234.3-31.1-352.7-24.5v0.3c-6,0.2-8.4,8.3-3.1,11.6l19.4,12.2
			c6.2,3.9,1.8,13.5-5.2,11.3c-50.5-15.8-103.9-20.6-154.1-7.5c-6,1.6-6.4,9.9-0.5,12.1c7.8,2.9,15.4,6.4,22.7,10.4
			c6.2,3.5,2.8,13.1-4.2,11.7c-25.9-5.1-52.8-4.9-78.6,0.6l0-0.1L178.3,87.6l88.3,88.3L442.5,0l177.4,177.4l90-89.9l176.8,176.8
			c31.2,30.9-12.4,13.1-12.4,13.1c-40.5-34.8-90.9-58-143.6-66.4c-5-0.8-8.8,4.3-6.8,8.8c5.2,11.4,15.7,19.4,27.7,26.8
			c6,3.7,2.3,13-4.6,11.5c-5.1-1.2-10.2-2-15.4-2.5c-5.2-0.5-8.7,5.2-5.9,9.6c0.7,1.1,1,2.2,1,3.3
			C726.8,272.2,723.4,275.4,719.5,274.7z"/>
	</g>
	<g>
		<line class="st1" x1="1.5" y1="264.4" x2="178.3" y2="87.6"/>
		<polyline class="st1" points="265.7,176.8 266.6,175.9 442.5,0 		"/>
		<polyline class="st1" points="178.3,87.6 266.6,175.9 266.7,175.9 		"/>
		<polyline class="st1" points="442.5,0 619.9,177.4 707.7,265.1 		"/>
		<line class="st1" x1="619.9" y1="177.4" x2="710" y2="87.6"/>
		<path class="st1" d="M205.8,202c-0.2,0-0.5,0-0.7,0c-6,0.2-8.4,8.3-3.1,11.6l19.4,12.2c6.2,3.9,1.8,13.5-5.2,11.3
			c-50.5-15.8-103.9-20.6-154.1-7.5c-6,1.6-6.4,9.9-0.5,12.1c7.8,2.9,15.4,6.4,22.7,10.4c6.2,3.5,2.8,13.1-4.2,11.7
			c-25.9-5.1-52.8-4.9-78.6,0.6c-0.5,0.1-1.1,0.2-1.6,0.3"/>
		<path class="st1" d="M710,87.6l176.8,176.8c31.2,30.9-12.4,13.1-12.4,13.1c-40.5-34.8-90.9-58-143.6-66.4c-5-0.8-8.8,4.3-6.8,8.8
			c5.2,11.4,15.7,19.4,27.7,26.8c6,3.7,2.3,13-4.6,11.5c-5.1-1.2-10.2-2-15.4-2.5c-5.2-0.5-8.7,5.2-5.9,9.6c0.7,1.1,1,2.2,1,3.3
			c0,3.7-3.4,6.9-7.3,6.2c-0.5-0.1-1-0.2-1.5-0.5"/>
		<path class="st1" d="M205.1,201.6c118.4-6.5,240.1-12.7,352.7,24.5c33.5,11.1,65.6,25.8,97,41.9c-6.4-16.9-21.1-30.4-38.4-35.3
			c18.6-9,38.5,8.3,52.6,23.4c13.7,14.6,19,22.1,50.4,18.5c1-0.1,2-0.2,3-0.4"/>
	</g>
</g>
<g>
	<g>
		<path class="st2" d="M464.9,100.8c32.8,26.5,56.9,62.1,82.9,94.9c1.2,1.5,3.3-0.6,2.1-2.1c-26-32.8-50.1-68.4-82.9-94.9
			C465.5,97.5,463.4,99.6,464.9,100.8L464.9,100.8z"/>
	</g>
</g>
<g>
	<path class="st3" d="M449,35.7c53.5,47,103.2,105.6,142.5,154.1"/>
	<g>
		<path class="st2" d="M446.9,37.8c52.6,46.3,98.5,99.8,142.5,154.1c2.4,3,6.7-1.3,4.2-4.2c-44-54.3-89.9-107.8-142.5-154.1
			C448.2,31.1,443.9,35.3,446.9,37.8L446.9,37.8z"/>
	</g>
</g>
<g>
	<g>
		<path class="st2" d="M711.1,129.4c32.2,19.2,55.7,49.2,78.3,78.5c2.3,3,7.5,0,5.2-3c-23.3-30.1-47.3-60.8-80.5-80.6
			C710.8,122.3,707.8,127.5,711.1,129.4L711.1,129.4z"/>
	</g>
</g>
<g>
	<g>
		<path class="st2" d="M173.4,124.3c25.6,17.6,48.2,38.9,67.2,63.4c1.2,1.5,3.3-0.6,2.1-2.1c-19.2-24.7-42.1-46.2-67.9-63.9
			C173.3,120.7,171.8,123.3,173.4,124.3L173.4,124.3z"/>
	</g>
</g>
<g>
	<path class="st4" d="M205.4,282.7c-0.1-3.1-0.1-6.1-0.1-9.2c0.4-0.3,1.6-0.5,3.5-0.8c1.5,0,2.7,0.3,3.3,0.5
		c0.2,3.3,0.4,6.5,0.6,9.7c4.6,0.1,9.2,0.3,13.8,0.5v3.6c0,1.3-0.2,2.7-0.6,4c-4.4,0-8.7,0-12.9-0.1c0,2.5,0.1,5,0.2,7.4
		c4.1,1.1,8.2,2.8,12.2,5.1c-0.2,2.3-0.9,4.8-1.8,7.4c-3.9-0.8-7.3-1.8-10.1-3.1c0,4.3,0.1,8.5,0.1,12.9c-0.9,0.4-2,0.5-3.5,0.5
		c-1.9,0-3.1,0-3.5-0.3c-0.2-4.3-0.4-8.5-0.6-12.6c-4.6,3.3-9.1,6.2-13.4,8.8c-1.6-1.8-2.7-4-3.3-6.5c5.2-4.2,10.6-8.3,16.4-12.1
		c-0.1-2.5-0.2-5.2-0.2-7.8c-4.9-0.1-9.7-0.4-14.4-0.6c-0.3-1.4-0.4-2.7-0.4-4c0-1.1,0-2.3,0.2-3.4
		C195.8,282.6,200.6,282.7,205.4,282.7z M225.5,323c-4.1,9.7-9.9,19.5-17.4,29.6c-2.4-0.5-4.2-1.7-5.4-3.7
		c3.6-9.7,9.2-19.8,16.5-30.2C221.9,319.4,224,321,225.5,323z M234.6,352.6c-0.4,2.3-1.1,4.5-2.1,6.4c-4.7-0.4-8.9-2-12.4-5
		c0.4-2.3,1.1-4.6,1.8-6.6C225.7,348,230,349.8,234.6,352.6z M256.6,340.9c-5.5,13.1-11.3,24.9-17.4,35.3c-2.8-1-4.9-2.4-6.2-4
		c3.5-7.8,7.8-16.4,12.8-26.4c-6.8-2.9-13.5-5.7-20.4-8.3c0.6-2.8,1.5-5.4,2.4-7.7C237.5,332.6,247.2,336.3,256.6,340.9z
		 M268.9,287.8v3.7c-4.1,0.5-7.9,0.8-11.7,0.9c0.4,9.4,0.8,19.4,0.8,29.6c-0.9,0.4-2,0.5-3.5,0.5c-1.8,0-3,0-3.5-0.3
		c-0.4-4.3-0.8-8.4-1-12.5c-4.7,2.7-9.3,5.1-13.7,7.3c-1.5-1.8-2.7-4-3.3-6.5c5-3.4,10.5-6.9,16.5-10.2c-0.2-2.6-0.3-5-0.3-7.4
		c-5,0.3-10,0.4-14.7,0.4c-0.4-2.6-0.5-5.1-0.5-7.8c4.9-0.4,9.9-0.6,15-0.9c-0.1-4.1-0.1-8-0.1-11.9c0.4-0.3,1.6-0.5,3.5-0.6
		c1.5,0,2.7,0.1,3.4,0.4c0.3,4,0.6,7.9,1,11.9c4,0,7.9-0.1,12-0.1C268.8,285.3,268.9,286.5,268.9,287.8z M273.6,304.4
		c-0.3,2.4-1,5-1.9,7.5c-4.5-0.9-8-2.3-10.8-4.2c0.8-3.1,1.5-5.5,2.3-7.3C266.5,301.2,270.1,302.6,273.6,304.4z"/>
	<path class="st4" d="M327.9,291.3c-5.8,9.9-12.1,19.8-18.8,29.5c3.4,2.3,7,4.6,10.5,6.9c2.6-4.5,5.4-8.9,8.4-13.4
		c2.1,1,4.3,2.3,6.2,4c-7.1,12.6-13.4,24.5-19,35.7c3.6,1.3,8.8,1.8,15.7,1.8c0-3.3-0.1-6.4-0.3-9.2c1.6-0.5,3.5-0.8,5.7-1
		c0.6,5.1,1.1,10.6,1.1,16.4c-1.1,0.8-4.1,1.1-9.2,1.1c-10.1,0-17.6-1.1-22.3-3.7c1.7-7.3,4.9-15.3,9.7-24.1
		c-6.2-3.3-11.9-6.9-17.3-10.7c7.5-13.9,15.3-26.1,23.6-36.7C323.8,288.5,325.9,289.6,327.9,291.3z M379.5,314.6
		c0.4,6.6,0.6,13.9,0.6,22.1v24.9c-1.5,0.4-4,0.5-7.4,0.5c-3,0-5.6-0.1-7.9-0.5c-0.3-1.3-0.4-2.6-0.4-3.8v-2.9
		c2.6-0.3,5.2-0.5,7.7-0.5c0-9.2-0.2-19.6-0.6-31.6c-9.1-0.1-17.7-0.3-25.9-0.4c-0.4-1.4-0.5-2.7-0.5-3.8c0-1.1,0.1-2.4,0.5-3.7
		c3.2-0.6,8.8-1,16.5-1C367.2,313.7,373,314.1,379.5,314.6z"/>
	<path class="st4" d="M443.8,299.5c-1.9,7.4-3.5,13.1-4.9,17.5c3,0.3,5.6,0.5,7.8,0.8c0.2,0.8,0.4,2,0.4,3.8c0,2-0.2,3.3-0.4,3.8
		c-1.1,0.5-6.3,0.6-16,0.6c-15.2,0-23.6-0.1-25-0.6c-0.3-1-0.4-2.3-0.4-4.1c0-1.4,0.1-2.7,0.5-4c7.5-0.3,15.8-0.5,24.9-0.5h0.2
		c1.7-7.4,3.8-13.9,6.2-19.6C439.7,297.5,441.9,298.3,443.8,299.5z M424.8,337.2v-8c0.4-0.3,1.6-0.5,3.5-0.8c1.5,0,2.7,0.3,3.3,0.5
		c0.2,2.9,0.4,5.7,0.6,8.4c3.9,0.3,7.7,0.4,11.5,0.5v4c0,1.7-0.3,3.2-0.8,4.7c-3.5,0-7,0-10.3-0.1c0,2,0.1,4.1,0.2,6.1
		c4.5,1,8.9,2.7,13.4,4.8c-0.3,2.4-1,5-1.9,7.5c-4.3-0.9-8-2-11.2-3.3c0,4.1,0.1,8.3,0.1,12.5c-0.9,0.3-2,0.5-3.5,0.5
		c-1.9,0-3.1-0.1-3.5-0.3c-0.3-4.2-0.5-8.3-0.6-12.1c-5.2,3.1-10.1,6-14.9,8.5c-1.5-1.9-2.7-4.1-3.3-6.5c5.6-4.1,11.5-7.9,17.8-11.6
		c-0.1-2.2-0.2-4.3-0.2-6.4c-5.3-0.1-10.5-0.4-15.7-0.8c-0.4-1.7-0.5-3.2-0.5-4.5s0-2.7,0.2-4.1C414.3,336.9,419.5,337,424.8,337.2z
		 M432.4,274.8c0,3.1-0.2,6.4-0.5,9.7c6.1,0.1,11.1,0.5,14.9,1c0.2,0.8,0.4,2.2,0.4,4c0,2-0.2,3.4-0.4,4.1
		c-1.1,0.5-6.8,0.6-16.8,0.6c-12.9,0-20-0.1-21.1-0.6c-0.2-1-0.3-2.6-0.3-4.3c0-1.5,0.1-2.9,0.5-4.2c4.6-0.3,9.7-0.4,15.1-0.5
		c0.1-4.3,0.4-7.7,1-10.2c1.1-0.1,2.3-0.3,3.8-0.3C430.2,274,431.3,274.3,432.4,274.8z M419.1,310.6c-2,1.4-4.1,2.2-6,2.4
		c-2.3-3.8-3.5-8.5-4-14.3c1.7-0.8,3.6-1.4,5.9-1.9C417,299.9,418.2,304.5,419.1,310.6z M466.6,308.7c-0.6,3.1-1.6,7.5-2.7,13.4
		c8.7,0.5,17.6,1.3,26.6,2.3c0,2.2-0.2,4.6-0.6,7.1c-3.4,0-6.8,0-10-0.3c0.6,12,1.1,24.2,1.1,36.5c-0.8,0.3-1.8,0.5-3.3,0.5
		c-1.3,0-2.4-0.1-3.2-0.1c-1.3-12.2-1.9-24.6-2-37.4c-3.4-0.3-6.8-0.6-10-1.1c-1.5,7.8-3.3,17.2-5.5,28.3c-2.5-0.4-4.6-1.3-6.4-2.6
		c1.7-13.9,4.8-30.3,9.2-49.3C462.3,306.4,464.7,307.3,466.6,308.7z M487.5,293.6c-9.9,3.4-20.1,5.6-30.7,6.5
		c-0.8-2.3-1.2-4.6-1.3-7.1c9.2-3.1,19.4-5.2,30.7-6.5C487,289,487.5,291.3,487.5,293.6z"/>
	<path class="st4" d="M563.1,301.1c2.6,0.4,4.9,0.8,7,1.3c-0.4,3.3-0.8,6.4-1.1,9.4c9.4,0.1,17,0.3,22.5,0.4
		c1.1,1.9,1.7,11.2,1.9,28.1c0,12.2-0.2,19.9-0.6,22.8c-7.7,3.1-20.7,4.6-38.7,4.6c-18.2,0-29.9-1.1-35.1-3.4
		c-0.4-6.1-0.6-14.7-0.6-25.6c0-6.1,0.3-14.4,1-25h7.3c-0.3,15.8-0.4,30.5-0.4,43.7c5.6,1.1,14.7,1.7,27.3,1.7
		c18.2-0.4,29.1-1.3,32.3-2.6v-17.7c0-2.8-0.4-8.9-1.1-18.2c-3.2,0-8.8-0.1-16.5-0.3c-0.6,5.4-1.2,10.7-1.7,15.8
		c3.6,1,7.4,2,11.4,2.8c0,2.3-0.4,4.7-1.1,7c-6.4-0.3-12.4-1.8-18.2-4.5c0.5-7.1,1.3-14.2,2.1-21.3c-0.5,0-1,0-1.2,0
		c-4.1,0.3-7.9,0.4-11.4,0.4c-1.7,8.2-3.6,15.8-5.6,23c0,0-1.4-0.1-4.1-0.6c-1-0.3-1.8-0.6-2.6-1.1c0.9-6.6,2.3-13.5,4-20.9
		c-3,0.1-5.7,0.1-8,0.1v-7.8c3.4-0.3,6.8-0.4,10.2-0.6c1.2-4.3,2.5-8.8,4-13.3c1.9,0.4,3.9,1,5.8,1.9c-0.6,3.8-1.3,7.5-1.9,11
		c4-0.1,7.9-0.3,11.8-0.3C562,308.2,562.6,304.6,563.1,301.1z M589,281.8v3.7c0,1.9-0.2,3.3-0.4,4.2c-26.5,0-47.6-0.5-63.3-1.5
		c-0.3-0.5-0.4-1.9-0.4-4.2c0-1.3,0.2-2.7,0.6-4.2C546.7,279.8,567.9,280.6,589,281.8z"/>
	<path class="st4" d="M647.2,355.9c22.6,0,38.4,0.3,47.4,0.5c0.1,1,0.2,2.2,0.2,3.4v3.7c-3.5,0.8-19.5,1.3-47.9,1.3
		c-9,0-15.5-0.4-19.3-1c-0.2-1.1-0.3-2.4-0.3-4s0-2.7,0.2-3.7C632.9,356,639.4,355.9,647.2,355.9z M644.6,300.2
		c-1.4-6-2.4-12.1-2.8-18.2c2.4-1,4.6-1.5,6.9-1.8c1.7,6.9,2.9,13.8,3.8,20.4c5.7,0.4,11.4,0.8,17.2,1c1.4-7.3,4-14.3,7.8-21.2
		c1.9,0.6,4,1.5,5.9,2.5c-1.2,7.7-3.2,14-6.1,19c4.3,0.3,8.7,0.5,13.1,0.8v3.8c0,2-0.2,3.8-0.4,5.1c-18.6-0.3-37.3-1.1-56.3-2.7
		c-0.3-1-0.4-2.7-0.4-4.8c0-1.4,0.3-2.9,1-4.5C637.6,299.9,641.1,300.1,644.6,300.2z M681.4,331c0,2.6-0.2,5-0.5,7.3
		c-14.2,0-28.3-0.9-42.3-2.8c0-2.8,0.2-5.4,0.6-7.9C653.2,328.1,667.3,329.3,681.4,331z"/>
</g>
</svg>
